<?xml version="1.0" encoding="UTF-8" standalone="no"?>
<!-- Created with Inkscape (http://www.inkscape.org/) -->

<svg
   version="1.1"
   id="svg1"
   width="117.57172"
   height="148.99513"
   viewBox="0 0 117.57172 148.99513"
   sodipodi:docname="OIG2.svg"
   inkscape:version="1.3.2 (091e20e, 2023-11-25, custom)"
   xmlns:inkscape="http://www.inkscape.org/namespaces/inkscape"
   xmlns:sodipodi="http://sodipodi.sourceforge.net/DTD/sodipodi-0.dtd"
   xmlns="http://www.w3.org/2000/svg"
   xmlns:svg="http://www.w3.org/2000/svg">
  <defs
     id="defs1">
    <clipPath
       clipPathUnits="userSpaceOnUse"
       id="clipPath1665">
      <path
         style="fill:#000000;stroke-width:0.915629"
         d="m 343.26824,741.26731 c -3.42657,-0.69599 -6.51766,-3.71462 -7.43741,-7.26308 -0.40378,-1.55779 -0.47045,-44.10571 -0.0695,-44.36026 0.37732,-0.23955 0.67959,0.20388 1.22608,1.79868 1.52345,4.4459 3.62207,8.33046 6.00905,12.4714 0.20632,0.35793 0.22999,0.66686 0.0612,1.54616 l -0.1037,0.53993 0.064,12.47663 c 0.0621,12.10953 0.0776,12.50052 0.52823,13.28852 0.25536,0.44654 0.86516,1.04513 1.35511,1.33021 l 0.89082,0.51833 39.70054,0.004 c 32.83941,0.003 39.82674,-0.0504 40.43082,-0.30963 1.15526,-0.49586 2.19168,-1.86162 2.18906,-2.88469 -9.1e-4,-0.47407 0.0242,-4.99318 0.0565,-10.04246 l 0.0587,-9.1805 1.80681,-1.85489 c 1.14721,-1.17774 2.27852,-2.65397 3.09897,-4.04379 1.51405,-2.56479 1.71072,-2.82338 2.05713,-2.70476 0.54064,0.18513 0.62606,2.74153 0.55167,16.51106 -0.0748,13.84488 -0.0875,14.19557 -0.5637,15.49558 -0.91064,2.48628 -2.62091,4.49297 -4.79287,5.62357 -2.57319,1.33947 -0.34828,1.27758 -45.06967,1.25366 -22.60767,-0.0121 -41.52911,-0.10816 -42.04765,-0.21348 z m 83.84504,-0.47533 c 1.9707,-0.37299 3.64755,-1.27893 5.21008,-2.8148 1.63619,-1.60828 2.46128,-3.29516 2.76362,-5.65009 0.21167,-1.64881 0.18967,-28.77862 -0.0235,-28.99762 -0.0652,-0.067 -0.4508,0.48325 -0.85685,1.22278 -1.06362,1.93714 -3.22776,4.78534 -4.40248,5.79403 l -1.01194,0.86894 -0.005,9.40508 c -0.003,5.17279 -0.0978,9.81461 -0.21086,10.31515 -0.27349,1.21131 -0.8663,1.99143 -2.01358,2.6498 l -0.94765,0.5438 -39.99229,-0.004 -39.9923,-0.004 -1.03303,-0.5461 c -0.73532,-0.38872 -1.18443,-0.84021 -1.55838,-1.5666 l -0.52533,-1.0205 0.0584,-12.77813 c 0.0535,-11.71328 -0.0815,-12.80974 -0.0371,-13.16216 0.0342,-0.27178 -0.0323,-0.8873 -0.23063,-1.21158 -1.39169,-2.27621 -2.87036,-4.77757 -3.55737,-6.36842 -0.86256,-1.99738 -2.48558,-6.12862 -2.61344,-6.65228 -0.0623,-0.25521 -0.12509,8.98857 -0.1395,20.54171 -0.0281,22.50453 -0.0378,22.286 1.10015,24.57745 1.04995,2.11413 4.07981,4.35916 6.55258,4.85524 1.55564,0.31208 81.8182,0.31312 83.46687,9.3e-4 z m -45.07222,-21.68976 c -6.84804,-0.79164 -10.4338,-1.79299 -15.69664,-4.38341 -6.93804,-3.41497 -12.27364,-8.12291 -16.41358,-14.48278 -7.36181,-11.30936 -9.09669,-24.70128 -4.90209,-37.84017 3.69582,-11.57654 12.91127,-21.46705 24.28,-26.05858 2.16518,-0.87445 6.25351,-2.05248 8.56524,-2.46802 2.77972,-0.49967 7.07674,-0.70281 9.88579,-0.46737 10.23458,0.85782 19.00763,4.95679 26.5518,12.40559 3.36393,3.3214 6.57582,7.60162 6.57582,8.76303 0,0.74011 -0.34602,1.02985 -5.19457,4.34961 -2.29803,1.57345 -4.92674,3.42639 -5.84159,4.11765 -2.87793,2.17458 -3.57243,2.1405 -5.28794,-0.25958 -2.16002,-3.02195 -6.56182,-6.77818 -9.64875,-8.23365 -5.44894,-2.56914 -11.11456,-3.00045 -16.89004,-1.28579 -6.22736,1.84881 -11.59223,6.33331 -14.61029,12.21275 -1.82553,3.55626 -2.64074,7.10147 -2.63381,11.45387 0.0177,11.10022 8.23343,20.98316 19.26196,23.17073 2.19402,0.4352 6.37982,0.49246 8.66129,0.11848 5.96026,-0.97702 12.22463,-4.89481 15.69663,-9.81683 1.45049,-2.05626 2.06863,-2.43398 3.19329,-1.95126 1.07508,0.46144 6.16316,4.30662 6.25597,4.72779 0.0421,0.19082 -0.27843,1.09562 -0.71221,2.01065 -1.25355,2.64433 -1.59398,4.12509 -1.58262,6.88382 0.007,1.83516 0.12846,2.80804 0.4902,3.94409 0.73272,2.3012 0.71415,2.35965 -1.26434,3.97969 -5.48243,4.48912 -11.80133,7.29272 -19.47964,8.64283 -1.93649,0.3405 -7.79699,0.63598 -9.25988,0.46686 z m 8.4694,-0.91193 c 5.82905,-0.89841 12.35479,-3.32288 16.60004,-6.16731 1.42566,-0.95523 4.6128,-3.51821 4.83569,-3.88868 0.0607,-0.10098 -0.0959,-0.85452 -0.34812,-1.67454 -0.25743,-0.83696 -0.50998,-2.45773 -0.57575,-3.69499 -0.14793,-2.78277 0.28808,-5.00794 1.48262,-7.56632 l 0.87881,-1.8822 -2.96175,-2.24669 c -3.37975,-2.56377 -3.78579,-2.64058 -4.86564,-1.30993 -0.24032,0.29613 -0.40415,0.70494 -0.59144,1.03705 -1.19157,2.11285 -3.07722,3.56911 -3.50069,4.00008 l -1.93061,1.4597 c -0.51113,0.60954 -1.43264,0.9466 -1.86838,1.37116 -0.8744,0.94788 -3.0909,1.50383 -3.32374,1.64321 -0.32075,0.19198 -1.44349,0.63626 -2.28212,0.92313 -1.00475,0.34368 -2.27738,0.67307 -3.3406,0.78573 -0.79197,0.17148 -2.8459,0.39264 -4.13687,0.26954 -0.9627,-0.1055 -1.96318,-0.18822 -2.61148,-0.18382 -0.66027,0.005 -1.04126,-0.1179 -1.14584,-0.13252 -0.49737,-0.0695 -0.45673,-0.0406 -0.96332,-0.13737 -0.11811,-0.0226 -0.21502,-0.0409 -0.5304,-0.11529 -0.32368,-0.0763 0.16533,0.0443 -0.42349,-0.10855 -0.25178,-0.0653 -0.51022,-0.11463 -0.65248,-0.15428 -0.27079,-0.0754 -0.7614,-0.24484 -0.85836,-0.28601 -0.40464,-0.17181 -0.40534,-0.16003 -0.57472,-0.22294 -0.13061,-0.0485 -0.66817,-0.21851 -0.85942,-0.28776 -0.12595,-0.0457 -0.31829,-0.1581 -0.53993,-0.23649 -0.19466,-0.0689 -4.04585,-2.11853 -4.31211,-2.24625 -0.0905,-0.0434 -0.24542,-0.17112 -0.59239,-0.45295 -0.29101,-0.23637 -0.32594,-0.23207 -0.43946,-0.33249 -0.17038,-0.0895 -0.14036,-0.0757 -0.45171,-0.348 -0.29065,-0.25414 -0.39458,-0.36122 -0.4517,-0.40963 -0.22841,-0.19362 -1.61407,-1.39961 -3.08746,-3.08392 -2.47349,-2.82757 -4.33099,-6.43042 -5.2992,-10.27846 -0.72468,-2.88015 -0.73949,-8.03247 -0.0322,-11.17621 1.05775,-4.70103 3.05017,-8.30929 6.58185,-11.91967 2.66208,-2.7214 4.62037,-4.08541 7.92741,-5.52167 3.28484,-1.42662 5.27251,-1.77823 9.93744,-1.75794 3.29214,0.0143 4.24196,0.0992 5.68589,0.50809 5.45518,1.54482 10.19262,4.86467 13.90036,9.74095 1.82224,2.39654 2.01666,2.4213 4.48332,0.57119 0.98469,-0.73855 3.67056,-2.63103 5.96859,-4.20549 2.29803,-1.57446 4.41377,-3.09375 4.70165,-3.37621 l 0.52342,-0.51354 -1.31389,-2.00587 c -1.83224,-2.79721 -4.76651,-6.14406 -7.29894,-8.32525 -5.7704,-4.97007 -11.80281,-7.97097 -19.34472,-9.62332 -2.63184,-0.5766 -3.34252,-0.63619 -7.64446,-0.64091 -5.31039,-0.006 -7.52596,0.32524 -12.46244,1.86233 -2.66965,0.83126 -6.80868,2.68017 -7.11745,3.17939 -0.0963,0.15574 -0.1767,0.19817 -0.1786,0.0943 -0.005,-0.25477 -1.81026,0.79978 -1.81026,1.05728 0,0.11164 -0.0931,0.14388 -0.20688,0.0716 -0.11379,-0.0722 -0.54034,0.2087 -0.9479,0.62431 -0.40756,0.41562 -0.6488,0.59959 -0.53608,0.40883 0.11272,-0.19077 -0.35001,0.0597 -1.0283,0.55656 -6.37521,4.67014 -11.50565,11.43402 -14.44707,19.04672 -0.99585,2.57738 -2.16817,7.42387 -2.4929,10.30595 -0.39599,3.51453 -0.16249,10.62496 0.4437,13.51127 1.26571,6.02656 3.89475,11.9038 7.66347,17.1317 1.79247,2.48649 6.11728,6.82207 8.55613,8.57742 5.60607,4.03494 11.20864,6.41118 18.01491,7.64069 3.15122,0.56926 8.96251,0.63379 12.19594,0.13543 z m 12.53472,-25.02533 c -355.424778,-531.19052 -355.424778,-531.19052 0,0 z m 16.16807,15.68995 c -0.0808,-1.24414 -0.30807,-4.32122 -0.50504,-6.83798 -0.19696,-2.51675 -0.29857,-4.7353 -0.2258,-4.93011 0.0853,-0.22829 0.43586,-0.35781 0.98633,-0.36438 0.46972,-0.006 1.26057,-0.16034 1.75744,-0.34388 1.00816,-0.37238 0.88395,-0.45492 1.90131,1.26356 0.80451,1.35894 1.56705,1.60587 3.03239,0.98197 0.64515,-0.27469 1.2452,-0.49943 1.33343,-0.49943 0.0883,0 0.36293,0.40774 0.61042,0.90609 0.2475,0.49835 0.70692,1.11369 1.02092,1.36742 0.31401,0.25374 0.57093,0.55162 0.57093,0.66197 0,0.37286 -9.59935,10.05682 -9.96896,10.05682 -0.30294,0 -0.39193,-0.39208 -0.51337,-2.26205 z m 9.06629,-8.38904 c -0.32198,-0.39307 -0.65009,-0.92404 -0.72915,-1.17993 -0.16886,-0.54651 -0.26655,-0.55778 -1.01672,-0.11725 -0.31054,0.18235 -1.03956,0.33526 -1.62004,0.33978 -0.87136,0.006 -1.1706,-0.11009 -1.71586,-0.67021 -0.36324,-0.37313 -0.78734,-0.99316 -0.94244,-1.37783 -0.23519,-0.58325 -0.3628,-0.66847 -0.76851,-0.51321 -0.26757,0.1024 -0.96203,0.2579 -1.54323,0.34555 -1.03156,0.15556 -1.0546,0.17704 -0.9667,0.90163 0.13119,1.08145 0.52073,6.39012 0.67485,9.19675 0.0732,1.33227 0.19114,2.51892 0.26217,2.63699 0.071,0.11806 2.11407,-1.82435 4.54008,-4.31648 l 4.41094,-4.53113 z m -1.98409,-6.48964 c -5.34846,-1.88664 -5.86019,-2.09925 -5.85817,-2.43386 0.002,-0.32028 1.56073,-5.11456 3.14019,-9.65807 0.6432,-1.85024 1.46102,-4.2515 1.81738,-5.33612 0.35636,-1.08463 1.07338,-3.17267 1.59339,-4.64011 1.09327,-3.08518 2.58126,-7.39012 5.41295,-15.66035 0.48059,-1.40363 1.22898,-3.54388 1.66306,-4.75611 l 0.78926,-2.20405 0.7802,0.0476 c 0.42911,0.0263 1.8348,0.45363 3.12377,0.94981 1.28897,0.49619 3.27897,1.24272 4.42225,1.65897 2.94174,1.07103 2.96383,1.09286 2.51157,2.48239 -0.91307,2.80529 -5.70471,16.73178 -6.89294,20.03374 -0.43623,1.21223 -1.58758,4.55311 -2.55856,7.42417 -1.53731,4.54564 -4.16203,12.07775 -4.6285,13.2823 -0.0865,0.2233 -0.32422,0.39735 -0.52831,0.38677 -0.20409,-0.0106 -2.35848,-0.72029 -4.78754,-1.57713 z m 5.25442,-0.20166 c 0.31576,-0.96777 2.60945,-7.56568 4.13353,-11.89027 0.74323,-2.10894 3.99949,-11.56368 6.31239,-18.32842 1.0689,-3.12627 2.28352,-6.64751 2.69917,-7.82498 0.54188,-1.53501 0.68355,-2.19758 0.50065,-2.34133 -0.50458,-0.39655 -2.20958,-0.97526 -2.44082,-0.82845 -0.12991,0.0825 -0.30107,0.0477 -0.38035,-0.0773 -0.17192,-0.27105 -2.74142,-1.28011 -2.74142,-1.07656 0,0.0776 -0.1394,0.0223 -0.30979,-0.12296 -0.32673,-0.27855 -3.42937,-1.41674 -3.86196,-1.41674 -0.13924,0 -0.47106,0.65251 -0.73739,1.45003 -0.59631,1.78569 -2.40913,7.03929 -3.66259,10.61424 -0.5145,1.46743 -1.22707,3.55548 -1.58348,4.6401 -0.3564,1.08463 -1.17208,3.43368 -1.81261,5.22012 -0.64054,1.78644 -1.45755,4.1355 -1.81559,5.22012 -0.35804,1.08462 -1.17242,3.48588 -1.80974,5.33612 -2.32636,6.75383 -2.97502,8.85879 -2.78345,9.03262 0.22715,0.20611 3.39325,1.40762 3.70921,1.40762 0.11711,0 0.21294,-0.14348 0.21294,-0.31882 0,-0.29831 2.03392,-6.291 4.10453,-12.09346 1.10203,-3.08824 2.23277,-6.31803 2.76163,-7.88818 0.94767,-2.81361 2.20905,-6.32382 2.51369,-6.99523 0.18245,-0.40209 0.33173,-0.87139 0.33173,-1.04289 0,-0.46088 2.38293,-6.80732 2.29153,-6.12861 -0.0452,0.33558 -1.67589,5.46044 -2.33772,7.09057 -0.12951,0.31901 -0.62494,1.72844 -1.10095,3.13207 -0.476,1.40363 -1.368,4.01369 -1.98221,5.80013 -0.61421,1.78644 -1.77587,5.17952 -2.58147,7.54017 -0.8056,2.36065 -1.58614,4.6053 -1.73452,4.98811 -0.25964,0.6698 -1.72568,4.93674 -1.9633,5.71416 -0.0891,0.29151 0.20163,0.48807 1.2701,0.85873 1.01499,0.35211 1.41093,0.40614 1.48023,0.20197 0.052,-0.15329 0.46082,-1.32274 0.90841,-2.59876 0.44758,-1.27603 0.96576,-2.78987 1.1515,-3.36408 0.18573,-0.57421 0.48329,-1.37302 0.66124,-1.77511 0.17795,-0.40209 0.32355,-0.80759 0.32355,-0.90112 0,-0.16193 0.99751,-3.12041 2.14844,-6.37197 0.61184,-1.72854 1.20264,-3.42667 2.78474,-8.00418 0.61744,-1.78644 1.6512,-4.70971 2.29726,-6.49615 0.64605,-1.78644 1.70854,-4.8235 2.36107,-6.74902 1.15044,-3.39477 1.86962,-5.40806 1.88381,-4.84005 0.004,0.15134 -0.47703,1.81895 -0.83667,2.81603 -0.35965,0.99709 -0.96192,2.7003 -1.33837,3.78493 -0.37646,1.08462 -1.05504,3.01606 -1.50794,4.29209 -0.4529,1.27603 -1.0627,2.99867 -1.3551,3.82809 -0.74171,2.10388 -3.96844,11.44875 -4.96682,14.38432 -1.2174,3.57951 -2.13353,6.18537 -2.7732,7.88818 -0.31158,0.82942 -0.79557,2.19792 -1.07553,3.04111 l -0.50902,1.53308 1.04843,0.35878 c 1.61531,0.55278 1.71457,0.51993 2.11223,-0.69887 z m 5.41286,-35.10047 c 0,-0.1136 0.36359,-1.3994 0.75964,-2.5176 0.063,-0.17776 0.78369,-1.8108 0.84251,-1.75037 0.13161,0.13518 -1.18582,4.02002 -1.45622,4.32435 -0.1077,0.12122 -0.14593,0.0169 -0.14593,-0.0563 z m 1.37601,-3.96827 c 0.073,-0.21002 0.25778,-0.81034 0.41052,-1.33403 0.15274,-0.52369 0.82031,-2.24269 0.91415,-2.24269 0.18331,0 -1.03673,3.57335 -1.29955,3.81399 -0.0868,0.0795 -0.0982,-0.0273 -0.0251,-0.23727 z m 5.80882,15.75221 c -0.63073,-1.06266 -0.5714,-1.64295 0.47244,-4.62083 3.0537,-8.71172 5.1762,-15.20348 5.17546,-15.82941 -9e-4,-0.9587 -0.77083,-2.22827 -1.35094,-2.22827 -0.25026,0 -0.45502,0.0845 -0.45502,0.18765 0,0.10322 -0.13182,0.37286 -0.29294,0.59922 -0.27411,0.38507 -0.63133,0.29091 -5.55379,-1.46392 -2.89346,-1.03149 -5.3983,-1.95449 -5.56632,-2.05107 -0.24257,-0.13945 -0.0363,-1.01147 1.00143,-4.23388 1.57277,-4.88381 1.96177,-5.70221 3.27451,-6.88922 1.20581,-1.09033 2.28257,-1.46193 4.22725,-1.45886 3.48194,0.006 6.05925,2.667 6.06372,6.26187 0.004,2.62063 -0.18878,2.85738 -1.79875,2.21754 -5.29569,-2.10466 -6.00173,-2.22121 -5.82657,-0.96181 0.0528,0.37975 0.57935,0.69226 2.4388,1.44752 1.30429,0.52977 2.80337,1.14042 3.3313,1.35701 0.75629,0.31028 0.95987,0.51195 0.95987,0.95083 0,0.31483 0.13348,0.55704 0.30698,0.55704 0.53835,0 2.34849,1.8254 2.83601,2.85992 0.88863,1.88567 0.69344,3.41163 -1.12351,8.78341 -0.87677,2.59217 -2.15196,6.38348 -2.83376,8.42512 -2.19623,6.57665 -2.35401,6.84416 -4.03689,6.84416 -0.66216,0 -0.87966,-0.13128 -1.24928,-0.75402 z m 2.0448,0.0527 c 0.71212,-0.39149 0.51391,0.14168 5.68427,-15.291 1.43142,-4.27254 1.57549,-4.86513 1.46068,-6.00789 -0.17161,-1.70802 -1.24516,-3.35715 -2.67777,-4.11348 -0.7014,-0.37029 -1.08095,-0.73031 -1.12926,-1.07115 -0.0762,-0.53773 -0.53572,-0.76686 -4.32034,-2.1542 -2.00552,-0.73517 -2.62942,-1.3853 -2.28307,-2.37905 0.41692,-1.19619 0.90746,-1.28001 3.03045,-0.51783 1.05559,0.37896 2.45158,0.9152 3.1022,1.19165 0.65062,0.27644 1.26042,0.42277 1.35511,0.32518 0.0947,-0.0976 0.16748,-0.87319 0.16176,-1.72355 -0.0157,-2.3344 -1.11028,-4.08158 -3.32396,-5.30574 -1.01897,-0.56349 -3.61954,-0.55148 -4.68335,0.0216 -1.09904,0.5921 -2.21664,1.71959 -2.74138,2.76564 -0.81228,1.61927 -2.88015,8.30539 -2.60032,8.40773 0.83567,0.30559 7.68874,2.75268 8.72735,3.11635 0.68203,0.2388 1.24101,0.41582 1.24218,0.39336 9e-4,-0.0225 0.11413,-0.24964 0.25103,-0.50485 0.29965,-0.55858 1.01953,-0.70606 1.67837,-0.34386 0.53042,0.29162 1.33477,1.91032 1.34259,2.70189 0.005,0.41403 -2.4292,7.76851 -5.66773,17.13041 -0.65024,1.87967 -0.65469,2.45319 -0.0248,3.19008 0.39546,0.4626 0.7948,0.51018 1.41598,0.16868 z M 335.67588,657.37887 c -0.0881,-0.0905 -0.1589,-8.36875 -0.15741,-18.39621 0.002,-14.46808 0.065,-18.47122 0.30433,-19.39177 0.95329,-3.666 3.67597,-6.18713 7.38535,-6.83867 0.86435,-0.15181 3.60826,-0.2283 6.76209,-0.18849 l 5.30749,0.067 -0.0768,2.08804 c -0.0498,1.35534 0.0492,2.64263 0.28232,3.66848 0.19749,0.86924 0.35907,1.61747 0.35907,1.66274 0,0.0453 -2.26133,0.11714 -5.02518,0.15972 -5.58281,0.086 -6.23523,0.23681 -7.23168,1.67183 l -0.50371,0.72541 -0.0621,12.62836 -0.0622,12.62836 -1.55365,2.1141 c -0.8545,1.16274 -2.25578,3.31016 -3.11395,4.77203 -1.47592,2.51418 -2.10747,3.14937 -2.61399,2.62906 z m 2.00656,-2.81319 c 1.19282,-2.09228 1.69214,-2.83275 4.00559,-5.94008 l 0.8383,-1.12597 -0.0152,-12.40878 c -0.015,-12.28728 -0.0104,-12.41706 0.46953,-13.25264 1.08017,-1.88065 1.83356,-2.09236 7.52185,-2.11366 4.39668,-0.0165 4.69927,-0.0447 4.541,-0.42366 -0.0933,-0.22331 -0.21764,-1.67326 -0.27643,-3.22213 l -0.10688,-2.81612 -0.82052,-0.13939 c -1.19595,-0.20319 -6.80029,-0.15997 -9.28992,0.0716 -2.2432,0.20868 -3.24748,0.72947 -3.68181,0.99141 -0.17651,0.10646 -0.23208,0.12585 -0.48325,0.26219 -0.21135,0.11472 -0.25397,0.0666 -0.50887,0.29283 -0.23974,0.21272 -0.2313,0.17444 -0.41805,0.32545 -0.2196,0.17758 -1.94255,1.70927 -2.39836,2.62709 -1.0432,2.10056 -1.08391,2.90716 -1.08807,21.55946 -0.003,10.83864 0.0776,17.57439 0.20875,17.57439 0.11697,0 0.793,-1.01792 1.50229,-2.26205 z m 90.63606,-14.94964 c -0.13348,-18.75741 -0.0224,-17.55547 -1.73321,-18.75973 -0.79661,-0.56075 -0.88752,-0.56995 -5.97986,-0.60543 -2.84402,-0.0198 -5.22288,-0.0894 -5.28635,-0.15458 -0.0635,-0.0652 0.0566,-0.98519 0.26698,-2.04444 0.27816,-1.40093 0.34059,-2.41806 0.22906,-3.7315 l -0.15333,-1.80563 5.4924,9.3e-4 c 3.02082,7.4e-4 6.08398,0.10088 6.80703,0.22252 3.03036,0.50982 5.47325,2.39189 6.86888,5.29197 l 0.85053,1.76737 v 5.92862 5.92862 l -1.49737,2.55205 c -0.82356,1.40364 -2.14923,3.85709 -2.94593,5.45213 -1.36233,2.72746 -1.49164,2.90439 -2.1727,2.97276 l -0.72415,0.0727 z m 2.84816,-1.12969 c 0.99541,-1.97071 2.29613,-4.40423 2.89047,-5.4078 l 1.08064,-1.82468 -0.0673,-5.71549 c -0.0673,-5.7081 -0.0682,-5.71728 -0.69989,-7.10751 -0.67285,-1.48072 -2.02145,-3.07801 -3.31984,-3.93206 -1.64194,-1.08003 -2.71387,-1.25037 -8.9211,-1.41769 l -5.87213,-0.15828 v 2.29 c 0,1.2595 -0.0877,2.78591 -0.19503,3.39203 l -0.19503,1.10203 4.82497,0.005 c 5.48797,0.006 6.15947,0.16593 7.33555,1.74932 l 0.65134,0.87691 0.0657,9.95277 c 0.0505,7.65172 0.12879,9.93263 0.33877,9.86563 0.15022,-0.0479 1.08756,-1.69955 2.08298,-3.67027 z m -47.20587,-16.92341 -20.10073,-0.11601 -1.01848,-0.61511 c -2.08247,-1.25767 -3.40058,-4.26856 -3.06398,-6.99885 0.23755,-1.92684 1.33353,-3.96895 2.78024,-5.18034 1.72528,-1.44464 2.83148,-1.70602 7.2199,-1.70602 h 3.6901 l -0.14132,-2.14605 c -0.30905,-4.69341 1.68691,-8.87254 5.42341,-11.35548 1.97267,-1.31086 3.84854,-1.83566 6.56596,-1.83695 3.93167,-0.002 6.17199,0.92058 8.86452,3.64992 2.59796,2.63349 3.44435,4.9388 3.44435,9.38138 v 2.26959 l 4.00886,0.0807 c 3.63135,0.0731 4.10745,0.13079 5.05592,0.61194 1.60267,0.813 2.74717,1.94707 3.59411,3.56132 0.71159,1.35631 0.77037,1.62612 0.77463,3.55573 0.005,2.43349 -0.42705,3.64591 -1.79424,5.03071 -1.10855,1.12283 -2.17759,1.62123 -3.84101,1.79071 -0.74883,0.0763 -10.40684,0.0865 -21.46224,0.0227 z m 23.26264,-1.08237 c 1.19958,-0.66705 2.48633,-2.06463 2.95521,-3.20973 0.22733,-0.5552 0.38121,-1.55533 0.38301,-2.48945 0.005,-2.82733 -1.61982,-5.35609 -4.23132,-6.58336 -1.0361,-0.48692 -1.48624,-0.53838 -4.95817,-0.56679 -2.10023,-0.0172 -3.95502,-0.085 -4.12177,-0.15076 -0.23077,-0.091 -0.30318,-0.79618 -0.30318,-2.95265 0,-4.12391 -0.66837,-6.08659 -2.92027,-8.57534 -5.15816,-5.70069 -14.29855,-4.92562 -18.35501,1.55644 -1.36789,2.18582 -1.7615,3.77863 -1.7615,7.12818 v 3.00551 h -4.02509 c -4.65499,0 -5.43523,0.18294 -7.12811,1.67132 -3.78087,3.32412 -2.98039,9.84109 1.40823,11.46475 0.66161,0.24478 4.89356,0.2949 21.48921,0.25452 l 20.66535,-0.0503 z m -23.84821,-11.98575 c -2.7678,-1.50104 -3.33144,-5.57708 -1.07075,-7.74328 1.92907,-1.84843 5.11063,-1.52334 6.83113,0.69802 0.57736,0.74543 0.69747,1.12831 0.77051,2.45617 0.13129,2.38679 -0.61809,3.68884 -2.67455,4.64706 -1.34728,0.62778 -2.62738,0.60854 -3.85634,-0.058 z m 3.96666,-0.68554 c 2.26209,-1.31613 2.76884,-4.163 1.10301,-6.19668 -2.07218,-2.52974 -6.0158,-1.58159 -6.86291,1.65003 -0.29582,1.12852 -0.16629,1.81492 0.59654,3.16121 1.03672,1.82966 3.33836,2.44724 5.16336,1.38544 z"
         id="path1665"
         sodipodi:nodetypes="sssssscsssccscscssssssssscsssssccsscccsscssssssssccsssssssssssssssssssssscsssscssssscsssccssssscssssssssssscssssssssssssscssscsscsssssssssssccsssssssssssssssssscsssssssscsscsssssccssssssssssssssssssssssssssssssssssssssssssssssssscssssssscsssssssssssssssscsssssssscssssssssssssssssssssssssssscsscssssscssscssssscccsssscscssssscssssssscssccsssssccsscccsssccsscsssscssccscsscsccsssscssssscssssssscsssssssssscsssscsssssssssssss" />
    </clipPath>
  </defs>
  <sodipodi:namedview
     id="namedview1"
     pagecolor="#ffffff"
     bordercolor="#000000"
     borderopacity="0.25"
     inkscape:showpageshadow="2"
     inkscape:pageopacity="0.0"
     inkscape:pagecheckerboard="0"
     inkscape:deskcolor="#d1d1d1"
     showguides="false"
     inkscape:zoom="5.6568543"
     inkscape:cx="-25.102291"
     inkscape:cy="76.986251"
     inkscape:window-width="3840"
     inkscape:window-height="2054"
     inkscape:window-x="2869"
     inkscape:window-y="-11"
     inkscape:window-maximized="1"
     inkscape:current-layer="svg1" />
  <g
     id="g1708"
     transform="translate(-364.09077,-144.54989)">
    <path
       style="fill:#febc6a;fill-opacity:1;stroke:#000000;stroke-width:0.176777;stroke-opacity:0"
       d="m 375.91564,293.3775 -4.59619,-0.10496 -1.32583,-0.65365 c -2.56941,-1.26676 -4.57402,-3.37953 -5.22524,-5.50715 -0.5627,-1.83846 -0.73148,-15.18789 -0.45139,-35.70347 l 0.10817,-7.92314 1.1279,2.88501 c 1.31697,3.36859 2.34303,5.48179 4.02249,8.28445 l 1.21357,2.02517 0.0259,13.45046 c 0.0253,13.10289 0.0351,13.46833 0.38156,14.14213 0.40797,0.79346 1.06808,1.43891 2.0333,1.98812 l 0.67302,0.38294 h 39.95414 39.95415 l 0.74019,-0.43378 c 0.91403,-0.53566 1.79032,-1.42731 2.09279,-2.12948 0.1752,-0.40671 0.24204,-2.82649 0.28673,-10.38036 l 0.0583,-9.85002 1.47724,-1.49397 c 0.92452,-0.93498 2.00936,-2.30942 2.89941,-3.67339 0.7822,-1.19868 1.53529,-2.33851 1.67354,-2.53295 0.22435,-0.31554 0.26487,-0.097 0.37704,2.03293 0.0691,1.31255 0.0924,7.95492 0.0518,14.76083 -0.0816,13.68114 -0.0301,13.05214 -1.25828,15.37253 -1.0638,2.00989 -3.44758,3.96537 -5.75982,4.72493 l -1.1618,0.38165 -37.38827,0.0301 c -20.56355,0.0165 -39.45656,-0.0172 -41.98447,-0.0749 z"
       id="path1696" />
    <path
       style="fill:#febc6a;fill-opacity:1;stroke:#000000;stroke-width:0.176777;stroke-opacity:0"
       d="m 409.34259,270.90654 c -3.50516,-0.31514 -8.02993,-1.40844 -11.31214,-2.73331 -3.83425,-1.5477 -8.22921,-4.1342 -10.98199,-6.46306 -2.0238,-1.71213 -5.64195,-5.47912 -6.95405,-7.24012 -3.22337,-4.32612 -5.94088,-10.0564 -7.36182,-15.5235 -0.75884,-2.91966 -0.88281,-4.36406 -0.88281,-10.2859 0,-6.10148 0.0609,-6.62121 1.34704,-11.49048 1.81464,-6.87031 5.57822,-13.34326 10.85055,-18.66179 1.97077,-1.98804 5.19206,-4.67273 5.60668,-4.67273 0.0992,0 0.45208,-0.23865 0.78429,-0.53033 0.33221,-0.29169 0.69555,-0.53033 0.80744,-0.53033 0.11188,0 0.36765,-0.15429 0.56838,-0.34287 0.82945,-0.77922 5.60383,-2.99084 8.5308,-3.95168 3.62603,-1.19033 5.79561,-1.65022 8.90335,-1.88729 4.69953,-0.3585 8.44123,-0.16361 11.94459,0.62213 6.46444,1.44986 12.65517,4.4419 17.83202,8.6184 3.00728,2.42616 7.21221,7.19253 9.1148,10.33178 l 0.59348,0.97925 -0.6115,0.51263 c -0.33632,0.28195 -2.28204,1.68212 -4.32381,3.11149 -2.04177,1.42937 -4.69555,3.29532 -5.8973,4.14655 -1.57191,1.11342 -2.33328,1.54768 -2.71352,1.54768 -0.61525,0 -0.98058,-0.34818 -3.05644,-2.91291 -3.16474,-3.91005 -7.37401,-6.81264 -12.19866,-8.41183 -1.75443,-0.58152 -1.79478,-0.58609 -5.81058,-0.65792 -4.54515,-0.0813 -6.12121,0.0762 -8.42486,0.84215 -4.74812,1.57863 -8.33481,4.06341 -11.65065,8.07132 -2.4233,2.92909 -3.85047,5.70376 -4.82917,9.38877 -0.54099,2.03694 -0.55192,2.15806 -0.56243,6.23157 -0.01,3.77763 0.0257,4.29177 0.39098,5.67114 1.8584,7.0177 6.2354,12.72076 12.22804,15.93267 4.02183,2.1556 6.42226,2.82482 10.96995,3.05836 3.77154,0.19368 6.30186,-0.26218 10.23517,-1.84396 2.19413,-0.88237 2.73714,-1.15449 3.55341,-1.78075 0.3403,-0.26109 1.39693,-1.05768 2.34808,-1.77021 2.15495,-1.61435 3.95367,-3.49127 4.80542,-5.01434 0.70912,-1.26802 1.33908,-1.87854 1.93834,-1.87854 0.47816,0 1.59855,0.70966 4.32586,2.74004 1.40446,1.04556 2.11199,1.68189 2.06384,1.85615 -0.0403,0.14584 -0.39329,0.99155 -0.78443,1.87934 -1.16941,2.65424 -1.3452,3.50931 -1.33987,6.51755 0.004,2.13377 0.0809,2.95648 0.3948,4.21241 0.21455,0.85841 0.3901,1.70117 0.3901,1.8728 0,0.32559 -3.08839,2.89973 -5.08221,4.23596 -3.71995,2.49308 -10.68738,5.0865 -15.95422,5.93849 -2.0595,0.33316 -7.42371,0.4784 -9.79495,0.26522 z"
       id="path1697" />
    <path
       style="fill:#febc6a;fill-opacity:1;stroke:#000000;stroke-width:0.176777;stroke-opacity:0"
       d="m 364.24491,203.249 c -0.17035,-7.65358 0.0154,-28.48708 0.27076,-30.36139 0.10595,-0.77782 0.37604,-1.81196 0.6002,-2.2981 0.56259,-1.2201 2.55356,-3.1568 3.99387,-3.88498 1.89471,-0.95792 2.69935,-1.05936 8.4259,-1.0622 2.83555,-10e-4 5.1992,0.0409 5.25258,0.094 0.13818,0.13754 0.48678,6.21478 0.36355,6.33801 -0.0562,0.0562 -2.18458,0.15348 -4.72979,0.21624 -2.97768,0.0734 -4.84826,0.19302 -5.24638,0.33542 -0.84965,0.30391 -1.56617,0.99522 -2.01172,1.94097 -0.37028,0.78598 -0.3749,0.94296 -0.38644,13.13279 l -0.0117,12.3373 -1.33921,1.80484 c -1.24778,1.68162 -2.40384,3.43003 -4.11484,6.22328 -0.38744,0.63251 -0.75609,1.15002 -0.81922,1.15002 -0.0631,0 -0.17454,-2.6848 -0.24757,-5.96622 z"
       id="path1698" />
    <path
       style="fill:#febc6a;fill-opacity:1;stroke:#000000;stroke-width:0.176777;stroke-opacity:0"
       d="m 457.08429,192.02368 c -0.0634,-1.38548 -0.11553,-5.82173 -0.11589,-9.85833 l -6.4e-4,-7.33927 -0.82954,-0.94829 c -1.31016,-1.4977 -1.33668,-1.50359 -7.09457,-1.57543 -4.59463,-0.0573 -4.99675,-0.0868 -4.87938,-0.35733 0.0704,-0.16217 0.1758,-1.68698 0.23432,-3.38845 l 0.10641,-3.09359 3.62392,0.0587 c 4.32151,0.07 7.86771,0.29029 9.16286,0.56932 1.84555,0.39761 4.17406,2.47643 5.26285,4.69849 0.64866,1.32382 0.76958,2.59595 0.77353,8.13815 l 0.004,4.97934 -0.82,1.38462 c -0.451,0.76155 -1.64554,2.9605 -2.65452,4.88657 -1.94615,3.71503 -2.32251,4.36462 -2.52872,4.36462 -0.0709,0 -0.18081,-1.13358 -0.24419,-2.51907 z"
       id="path1699" />
    <path
       style="fill:#10263b;fill-opacity:1;stroke:#000000;stroke-width:0.176777;stroke-opacity:0"
       d="m 448.05127,261.85048 c -0.12974,-0.79578 -0.66598,-8.94361 -0.69451,-10.5527 l -0.0233,-1.31612 1.41421,-0.32694 c 1.32173,-0.30555 1.42577,-0.30746 1.59099,-0.0292 0.70953,1.19507 1.30151,1.95428 1.67938,2.1538 0.56137,0.29641 2.21981,0.18005 2.9711,-0.20846 l 0.55356,-0.28626 0.29482,0.57626 c 0.16216,0.31694 0.51841,0.86087 0.79169,1.20874 l 0.49686,0.63248 -4.28442,4.36146 c -2.35643,2.3988 -4.37718,4.36145 -4.49055,4.36145 -0.11337,0 -0.24828,-0.25853 -0.2998,-0.57452 z"
       id="path1700" />
    <path
       style="fill:#febc6a;fill-opacity:1;stroke:#000000;stroke-width:0.125;stroke-opacity:0"
       d="m 457.71875,246.96339 c -0.53281,-0.17968 -0.96875,-0.38769 -0.96875,-0.46223 0,-0.18368 1.03897,-3.24167 2.06018,-6.06366 0.46025,-1.27188 1.75532,-4.98438 2.87793,-8.25 2.51947,-7.32905 4.33908,-12.5582 6.85074,-19.6875 1.06572,-3.025 2.06412,-5.93594 2.21867,-6.46875 0.21794,-0.75131 0.33216,-0.96875 0.50889,-0.96875 0.28099,0 1.83995,0.57892 2.06749,0.76776 0.34614,0.28728 0.65397,-0.68013 -5.18491,16.29474 -1.51348,4.4 -3.63431,10.53125 -4.71296,13.625 -1.07865,3.09375 -2.37772,6.83067 -2.88681,8.30427 -0.5091,1.4736 -1.01099,2.80953 -1.11531,2.96875 -0.23739,0.36231 -0.49007,0.35352 -1.71516,-0.0596 z"
       id="path1704" />
    <path
       style="fill:#febc6a;fill-opacity:1;stroke:#000000;stroke-width:0.125;stroke-opacity:0"
       d="m 454.88893,245.87795 c -1.34143,-0.49809 -1.33807,-0.21384 -0.0468,-3.96482 0.62255,-1.80847 2.69315,-7.81626 4.60134,-13.35063 1.90819,-5.53438 4.04435,-11.75 4.74701,-13.8125 0.70267,-2.0625 1.38734,-4.00313 1.52149,-4.3125 0.13416,-0.30938 0.68693,-1.89844 1.2284,-3.53125 0.62938,-1.89793 1.04458,-2.96875 1.15111,-2.96875 0.28304,0 2.13306,0.75178 2.41819,0.98266 l 0.26967,0.21837 -0.33912,0.93073 c -0.18652,0.51191 -0.83421,2.36511 -1.43933,4.11824 -0.60512,1.75312 -1.73038,4.95937 -2.50057,7.125 -1.85924,5.22775 -5.02892,14.31985 -6.31872,18.125 -0.57094,1.68437 -1.64245,4.79219 -2.38114,6.90625 l -1.34306,3.84375 -0.38493,-0.007 c -0.21171,-0.004 -0.74429,-0.13995 -1.1835,-0.30304 z"
       id="path1705" />
    <path
       style="fill:#10263b;fill-opacity:1;stroke:#000000;stroke-width:0.125;stroke-opacity:0"
       d="m 452.6875,245.12928 c -0.275,-0.0843 -1.11081,-0.3936 -1.85736,-0.68733 l -1.35736,-0.53405 0.0771,-0.48212 c 0.13552,-0.84744 3.42537,-10.72211 6.30534,-18.92578 0.84113,-2.396 3.1093,-8.96884 6.03893,-17.5 0.75549,-2.2 1.45953,-4.13303 1.56453,-4.29561 0.24469,-0.37888 0.54631,-0.3345 2.35267,0.3462 1.72565,0.65028 1.98645,0.81405 1.81288,1.13836 -0.15435,0.2884 -1.35065,3.64036 -1.96241,5.49855 -0.23766,0.72187 -0.68136,1.97217 -0.98599,2.77844 -0.30464,0.80627 -0.78717,2.18439 -1.07229,3.0625 -0.28513,0.87811 -0.84178,2.46843 -1.23702,3.53406 -0.39523,1.06562 -1.3092,3.65312 -2.03105,5.75 -0.72185,2.09687 -1.97153,5.66875 -2.77707,7.9375 -0.80554,2.26875 -2.09762,5.99785 -2.8713,8.28688 -0.77368,2.28904 -1.42759,4.18073 -1.45314,4.20378 -0.0256,0.023 -0.27145,-0.0271 -0.54645,-0.11138 z"
       id="path1706" />
    <path
       style="fill:#10263b;fill-opacity:1;stroke:#000000;stroke-width:0.125;stroke-opacity:0"
       d="m 473.01295,222.74565 c -0.68233,-0.77713 -0.62969,-1.03788 1.43789,-7.12247 2.17301,-6.39484 3.70401,-11.02976 4.05896,-12.288 0.24952,-0.88449 0.25094,-0.93751 0.043,-1.59873 -0.49364,-1.56939 -1.34696,-2.34377 -2.25315,-2.0447 -0.26226,0.0866 -0.50223,0.28326 -0.6175,0.50616 -0.10369,0.20052 -0.28552,0.36511 -0.40407,0.36574 -0.11855,6.4e-4 -2.3671,-0.76668 -4.99679,-1.70515 -3.81924,-1.36299 -4.78125,-1.7503 -4.78125,-1.92497 0,-0.67159 1.55054,-5.69595 2.33924,-7.58006 0.58968,-1.40866 1.76979,-2.70783 3.01775,-3.3222 0.79383,-0.3908 0.88247,-0.40616 2.32788,-0.40343 1.29035,0.002 1.59002,0.0427 2.12121,0.28521 1.51496,0.69153 2.75746,2.05928 3.20289,3.52575 0.19845,0.65335 0.24263,1.10537 0.21426,2.19213 L 478.6875,193 478.375,192.9611 c -0.17188,-0.0214 -1.325,-0.42276 -2.5625,-0.89197 -2.74586,-1.04112 -3.43045,-1.21669 -3.93285,-1.00859 -0.65655,0.27195 -0.98373,1.49424 -0.56139,2.09722 0.30142,0.43034 1.08902,0.83293 3.11924,1.59442 2.47058,0.92666 3.06785,1.25357 3.33708,1.82648 0.14764,0.31418 0.46273,0.61128 1.02473,0.96621 1.55987,0.98515 2.44865,2.26924 2.72501,3.93702 0.11701,0.70613 0.10482,1.00942 -0.074,1.84171 -0.24153,1.12399 -5.45432,16.75951 -6.10066,18.29863 -0.65927,1.56994 -1.56309,2.00446 -2.33668,1.12339 z"
       id="path1707" />
    <path
       style="fill:#10263b;fill-opacity:1;stroke:#000000;stroke-width:0.176777;stroke-opacity:0"
       d="m 392.39087,173.25107 c -3.41068,-1.21656 -4.84308,-5.68319 -3.00112,-9.35835 0.57219,-1.14166 1.78108,-2.41199 2.84787,-2.99261 1.16477,-0.63395 2.66509,-0.82114 6.6148,-0.82531 l 3.31456,-0.004 0.003,-2.69585 c 0.004,-3.28838 0.25548,-4.59155 1.26331,-6.53982 1.4805,-2.86199 4.26058,-5.07979 7.39568,-5.89988 1.49596,-0.39132 4.14491,-0.39381 5.65685,-0.005 2.64508,0.67963 5.35663,2.60385 6.9697,4.94596 1.19721,1.7383 1.52471,2.97911 1.73435,6.57099 0.10215,1.75009 0.25755,3.26153 0.34534,3.35876 0.0922,0.1021 1.82071,0.21631 4.09143,0.27034 3.85583,0.0918 3.95134,0.10311 4.9414,0.58751 2.2496,1.10062 3.85022,3.23146 4.15984,5.53779 0.17948,1.33691 0.006,2.95528 -0.41068,3.83359 -0.46125,0.97201 -1.78663,2.36346 -2.81075,2.95086 l -0.90102,0.51679 -20.77126,-0.006 c -17.02408,-0.005 -20.89251,-0.0494 -21.44337,-0.24584 z m 23.07838,-12.25958 c 1.06075,-0.47138 1.89716,-1.22933 2.27535,-2.06193 0.41719,-0.91843 0.44917,-3.18558 0.0582,-4.12305 -0.82337,-1.97409 -3.31148,-3.11805 -5.46831,-2.51417 -1.09111,0.30549 -2.2476,1.3636 -2.73908,2.50608 -0.32715,0.76048 -0.38451,1.15189 -0.31831,2.17218 0.0889,1.36991 0.42049,2.17674 1.26241,3.07159 1.32888,1.41242 3.11405,1.75618 4.92978,0.9493 z"
       id="path1708" />
  </g>
  <g
     id="g1718"
     transform="translate(-364.09077,-144.54989)">
    <path
       style="fill:#febc6a;fill-opacity:1;stroke:#000000;stroke-width:0.176777;stroke-opacity:0"
       d="m 375.91564,293.3775 -4.59619,-0.10496 -1.32583,-0.65365 c -2.56941,-1.26676 -4.57402,-3.37953 -5.22524,-5.50715 -0.5627,-1.83846 -0.73148,-15.18789 -0.45139,-35.70347 l 0.10817,-7.92314 1.1279,2.88501 c 1.31697,3.36859 2.34303,5.48179 4.02249,8.28445 l 1.21357,2.02517 0.0259,13.45046 c 0.0253,13.10289 0.0351,13.46833 0.38156,14.14213 0.40797,0.79346 1.06808,1.43891 2.0333,1.98812 l 0.67302,0.38294 h 39.95414 39.95415 l 0.74019,-0.43378 c 0.91403,-0.53566 1.79032,-1.42731 2.09279,-2.12948 0.1752,-0.40671 0.24204,-2.82649 0.28673,-10.38036 l 0.0583,-9.85002 1.47724,-1.49397 c 0.92452,-0.93498 2.00936,-2.30942 2.89941,-3.67339 0.7822,-1.19868 1.53529,-2.33851 1.67354,-2.53295 0.22435,-0.31554 0.26487,-0.097 0.37704,2.03293 0.0691,1.31255 0.0924,7.95492 0.0518,14.76083 -0.0816,13.68114 -0.0301,13.05214 -1.25828,15.37253 -1.0638,2.00989 -3.44758,3.96537 -5.75982,4.72493 l -1.1618,0.38165 -37.38827,0.0301 c -20.56355,0.0165 -39.45656,-0.0172 -41.98447,-0.0749 z"
       id="path1709" />
    <path
       style="fill:#febc6a;fill-opacity:1;stroke:#000000;stroke-width:0.176777;stroke-opacity:0"
       d="m 409.34259,270.90654 c -3.50516,-0.31514 -8.02993,-1.40844 -11.31214,-2.73331 -3.83425,-1.5477 -8.22921,-4.1342 -10.98199,-6.46306 -2.0238,-1.71213 -5.64195,-5.47912 -6.95405,-7.24012 -3.22337,-4.32612 -5.94088,-10.0564 -7.36182,-15.5235 -0.75884,-2.91966 -0.88281,-4.36406 -0.88281,-10.2859 0,-6.10148 0.0609,-6.62121 1.34704,-11.49048 1.81464,-6.87031 5.57822,-13.34326 10.85055,-18.66179 1.97077,-1.98804 5.19206,-4.67273 5.60668,-4.67273 0.0992,0 0.45208,-0.23865 0.78429,-0.53033 0.33221,-0.29169 0.69555,-0.53033 0.80744,-0.53033 0.11188,0 0.36765,-0.15429 0.56838,-0.34287 0.82945,-0.77922 5.60383,-2.99084 8.5308,-3.95168 3.62603,-1.19033 5.79561,-1.65022 8.90335,-1.88729 4.69953,-0.3585 8.44123,-0.16361 11.94459,0.62213 6.46444,1.44986 12.65517,4.4419 17.83202,8.6184 3.00728,2.42616 7.21221,7.19253 9.1148,10.33178 l 0.59348,0.97925 -0.6115,0.51263 c -0.33632,0.28195 -2.28204,1.68212 -4.32381,3.11149 -2.04177,1.42937 -4.69555,3.29532 -5.8973,4.14655 -1.57191,1.11342 -2.33328,1.54768 -2.71352,1.54768 -0.61525,0 -0.98058,-0.34818 -3.05644,-2.91291 -3.16474,-3.91005 -7.37401,-6.81264 -12.19866,-8.41183 -1.75443,-0.58152 -1.79478,-0.58609 -5.81058,-0.65792 -4.54515,-0.0813 -6.12121,0.0762 -8.42486,0.84215 -4.74812,1.57863 -8.33481,4.06341 -11.65065,8.07132 -2.4233,2.92909 -3.85047,5.70376 -4.82917,9.38877 -0.54099,2.03694 -0.55192,2.15806 -0.56243,6.23157 -0.01,3.77763 0.0257,4.29177 0.39098,5.67114 1.8584,7.0177 6.2354,12.72076 12.22804,15.93267 4.02183,2.1556 6.42226,2.82482 10.96995,3.05836 3.77154,0.19368 6.30186,-0.26218 10.23517,-1.84396 2.19413,-0.88237 2.73714,-1.15449 3.55341,-1.78075 0.3403,-0.26109 1.39693,-1.05768 2.34808,-1.77021 2.15495,-1.61435 3.95367,-3.49127 4.80542,-5.01434 0.70912,-1.26802 1.33908,-1.87854 1.93834,-1.87854 0.47816,0 1.59855,0.70966 4.32586,2.74004 1.40446,1.04556 2.11199,1.68189 2.06384,1.85615 -0.0403,0.14584 -0.39329,0.99155 -0.78443,1.87934 -1.16941,2.65424 -1.3452,3.50931 -1.33987,6.51755 0.004,2.13377 0.0809,2.95648 0.3948,4.21241 0.21455,0.85841 0.3901,1.70117 0.3901,1.8728 0,0.32559 -3.08839,2.89973 -5.08221,4.23596 -3.71995,2.49308 -10.68738,5.0865 -15.95422,5.93849 -2.0595,0.33316 -7.42371,0.4784 -9.79495,0.26522 z"
       id="path1710" />
    <path
       style="fill:#febc6a;fill-opacity:1;stroke:#000000;stroke-width:0.176777;stroke-opacity:0"
       d="m 364.24491,203.249 c -0.17035,-7.65358 0.0154,-28.48708 0.27076,-30.36139 0.10595,-0.77782 0.37604,-1.81196 0.6002,-2.2981 0.56259,-1.2201 2.55356,-3.1568 3.99387,-3.88498 1.89471,-0.95792 2.69935,-1.05936 8.4259,-1.0622 2.83555,-10e-4 5.1992,0.0409 5.25258,0.094 0.13818,0.13754 0.48678,6.21478 0.36355,6.33801 -0.0562,0.0562 -2.18458,0.15348 -4.72979,0.21624 -2.97768,0.0734 -4.84826,0.19302 -5.24638,0.33542 -0.84965,0.30391 -1.56617,0.99522 -2.01172,1.94097 -0.37028,0.78598 -0.3749,0.94296 -0.38644,13.13279 l -0.0117,12.3373 -1.33921,1.80484 c -1.24778,1.68162 -2.40384,3.43003 -4.11484,6.22328 -0.38744,0.63251 -0.75609,1.15002 -0.81922,1.15002 -0.0631,0 -0.17454,-2.6848 -0.24757,-5.96622 z"
       id="path1711" />
    <path
       style="fill:#febc6a;fill-opacity:1;stroke:#000000;stroke-width:0.176777;stroke-opacity:0"
       d="m 457.08429,192.02368 c -0.0634,-1.38548 -0.11553,-5.82173 -0.11589,-9.85833 l -6.4e-4,-7.33927 -0.82954,-0.94829 c -1.31016,-1.4977 -1.33668,-1.50359 -7.09457,-1.57543 -4.59463,-0.0573 -4.99675,-0.0868 -4.87938,-0.35733 0.0704,-0.16217 0.1758,-1.68698 0.23432,-3.38845 l 0.10641,-3.09359 3.62392,0.0587 c 4.32151,0.07 7.86771,0.29029 9.16286,0.56932 1.84555,0.39761 4.17406,2.47643 5.26285,4.69849 0.64866,1.32382 0.76958,2.59595 0.77353,8.13815 l 0.004,4.97934 -0.82,1.38462 c -0.451,0.76155 -1.64554,2.9605 -2.65452,4.88657 -1.94615,3.71503 -2.32251,4.36462 -2.52872,4.36462 -0.0709,0 -0.18081,-1.13358 -0.24419,-2.51907 z"
       id="path1712" />
    <path
       style="fill:#10263b;fill-opacity:1;stroke:#000000;stroke-width:0.176777;stroke-opacity:0"
       d="m 448.05127,261.85048 c -0.12974,-0.79578 -0.66598,-8.94361 -0.69451,-10.5527 l -0.0233,-1.31612 1.41421,-0.32694 c 1.32173,-0.30555 1.42577,-0.30746 1.59099,-0.0292 0.70953,1.19507 1.30151,1.95428 1.67938,2.1538 0.56137,0.29641 2.21981,0.18005 2.9711,-0.20846 l 0.55356,-0.28626 0.29482,0.57626 c 0.16216,0.31694 0.51841,0.86087 0.79169,1.20874 l 0.49686,0.63248 -4.28442,4.36146 c -2.35643,2.3988 -4.37718,4.36145 -4.49055,4.36145 -0.11337,0 -0.24828,-0.25853 -0.2998,-0.57452 z"
       id="path1713" />
    <path
       style="fill:#febc6a;fill-opacity:1;stroke:#000000;stroke-width:0.125;stroke-opacity:0"
       d="m 457.71875,246.96339 c -0.53281,-0.17968 -0.96875,-0.38769 -0.96875,-0.46223 0,-0.18368 1.03897,-3.24167 2.06018,-6.06366 0.46025,-1.27188 1.75532,-4.98438 2.87793,-8.25 2.51947,-7.32905 4.33908,-12.5582 6.85074,-19.6875 1.06572,-3.025 2.06412,-5.93594 2.21867,-6.46875 0.21794,-0.75131 0.33216,-0.96875 0.50889,-0.96875 0.28099,0 1.83995,0.57892 2.06749,0.76776 0.34614,0.28728 0.65397,-0.68013 -5.18491,16.29474 -1.51348,4.4 -3.63431,10.53125 -4.71296,13.625 -1.07865,3.09375 -2.37772,6.83067 -2.88681,8.30427 -0.5091,1.4736 -1.01099,2.80953 -1.11531,2.96875 -0.23739,0.36231 -0.49007,0.35352 -1.71516,-0.0596 z"
       id="path1714" />
    <path
       style="fill:#febc6a;fill-opacity:1;stroke:#000000;stroke-width:0.125;stroke-opacity:0"
       d="m 454.88893,245.87795 c -1.34143,-0.49809 -1.33807,-0.21384 -0.0468,-3.96482 0.62255,-1.80847 2.69315,-7.81626 4.60134,-13.35063 1.90819,-5.53438 4.04435,-11.75 4.74701,-13.8125 0.70267,-2.0625 1.38734,-4.00313 1.52149,-4.3125 0.13416,-0.30938 0.68693,-1.89844 1.2284,-3.53125 0.62938,-1.89793 1.04458,-2.96875 1.15111,-2.96875 0.28304,0 2.13306,0.75178 2.41819,0.98266 l 0.26967,0.21837 -0.33912,0.93073 c -0.18652,0.51191 -0.83421,2.36511 -1.43933,4.11824 -0.60512,1.75312 -1.73038,4.95937 -2.50057,7.125 -1.85924,5.22775 -5.02892,14.31985 -6.31872,18.125 -0.57094,1.68437 -1.64245,4.79219 -2.38114,6.90625 l -1.34306,3.84375 -0.38493,-0.007 c -0.21171,-0.004 -0.74429,-0.13995 -1.1835,-0.30304 z"
       id="path1715" />
    <path
       style="fill:#10263b;fill-opacity:1;stroke:#000000;stroke-width:0.125;stroke-opacity:0"
       d="m 452.6875,245.12928 c -0.275,-0.0843 -1.11081,-0.3936 -1.85736,-0.68733 l -1.35736,-0.53405 0.0771,-0.48212 c 0.13552,-0.84744 3.42537,-10.72211 6.30534,-18.92578 0.84113,-2.396 3.1093,-8.96884 6.03893,-17.5 0.75549,-2.2 1.45953,-4.13303 1.56453,-4.29561 0.24469,-0.37888 0.54631,-0.3345 2.35267,0.3462 1.72565,0.65028 1.98645,0.81405 1.81288,1.13836 -0.15435,0.2884 -1.35065,3.64036 -1.96241,5.49855 -0.23766,0.72187 -0.68136,1.97217 -0.98599,2.77844 -0.30464,0.80627 -0.78717,2.18439 -1.07229,3.0625 -0.28513,0.87811 -0.84178,2.46843 -1.23702,3.53406 -0.39523,1.06562 -1.3092,3.65312 -2.03105,5.75 -0.72185,2.09687 -1.97153,5.66875 -2.77707,7.9375 -0.80554,2.26875 -2.09762,5.99785 -2.8713,8.28688 -0.77368,2.28904 -1.42759,4.18073 -1.45314,4.20378 -0.0256,0.023 -0.27145,-0.0271 -0.54645,-0.11138 z"
       id="path1716" />
    <path
       style="fill:#10263b;fill-opacity:1;stroke:#000000;stroke-width:0.125;stroke-opacity:0"
       d="m 473.01295,222.74565 c -0.68233,-0.77713 -0.62969,-1.03788 1.43789,-7.12247 2.17301,-6.39484 3.70401,-11.02976 4.05896,-12.288 0.24952,-0.88449 0.25094,-0.93751 0.043,-1.59873 -0.49364,-1.56939 -1.34696,-2.34377 -2.25315,-2.0447 -0.26226,0.0866 -0.50223,0.28326 -0.6175,0.50616 -0.10369,0.20052 -0.28552,0.36511 -0.40407,0.36574 -0.11855,6.4e-4 -2.3671,-0.76668 -4.99679,-1.70515 -3.81924,-1.36299 -4.78125,-1.7503 -4.78125,-1.92497 0,-0.67159 1.55054,-5.69595 2.33924,-7.58006 0.58968,-1.40866 1.76979,-2.70783 3.01775,-3.3222 0.79383,-0.3908 0.88247,-0.40616 2.32788,-0.40343 1.29035,0.002 1.59002,0.0427 2.12121,0.28521 1.51496,0.69153 2.75746,2.05928 3.20289,3.52575 0.19845,0.65335 0.24263,1.10537 0.21426,2.19213 L 478.6875,193 478.375,192.9611 c -0.17188,-0.0214 -1.325,-0.42276 -2.5625,-0.89197 -2.74586,-1.04112 -3.43045,-1.21669 -3.93285,-1.00859 -0.65655,0.27195 -0.98373,1.49424 -0.56139,2.09722 0.30142,0.43034 1.08902,0.83293 3.11924,1.59442 2.47058,0.92666 3.06785,1.25357 3.33708,1.82648 0.14764,0.31418 0.46273,0.61128 1.02473,0.96621 1.55987,0.98515 2.44865,2.26924 2.72501,3.93702 0.11701,0.70613 0.10482,1.00942 -0.074,1.84171 -0.24153,1.12399 -5.45432,16.75951 -6.10066,18.29863 -0.65927,1.56994 -1.56309,2.00446 -2.33668,1.12339 z"
       id="path1717" />
    <path
       style="fill:#10263b;fill-opacity:1;stroke:#000000;stroke-width:0.176777;stroke-opacity:0"
       d="m 392.39087,173.25107 c -3.41068,-1.21656 -4.84308,-5.68319 -3.00112,-9.35835 0.57219,-1.14166 1.78108,-2.41199 2.84787,-2.99261 1.16477,-0.63395 2.66509,-0.82114 6.6148,-0.82531 l 3.31456,-0.004 0.003,-2.69585 c 0.004,-3.28838 0.25548,-4.59155 1.26331,-6.53982 1.4805,-2.86199 4.26058,-5.07979 7.39568,-5.89988 1.49596,-0.39132 4.14491,-0.39381 5.65685,-0.005 2.64508,0.67963 5.35663,2.60385 6.9697,4.94596 1.19721,1.7383 1.52471,2.97911 1.73435,6.57099 0.10215,1.75009 0.25755,3.26153 0.34534,3.35876 0.0922,0.1021 1.82071,0.21631 4.09143,0.27034 3.85583,0.0918 3.95134,0.10311 4.9414,0.58751 2.2496,1.10062 3.85022,3.23146 4.15984,5.53779 0.17948,1.33691 0.006,2.95528 -0.41068,3.83359 -0.46125,0.97201 -1.78663,2.36346 -2.81075,2.95086 l -0.90102,0.51679 -20.77126,-0.006 c -17.02408,-0.005 -20.89251,-0.0494 -21.44337,-0.24584 z m 23.07838,-12.25958 c 1.06075,-0.47138 1.89716,-1.22933 2.27535,-2.06193 0.41719,-0.91843 0.44917,-3.18558 0.0582,-4.12305 -0.82337,-1.97409 -3.31148,-3.11805 -5.46831,-2.51417 -1.09111,0.30549 -2.2476,1.3636 -2.73908,2.50608 -0.32715,0.76048 -0.38451,1.15189 -0.31831,2.17218 0.0889,1.36991 0.42049,2.17674 1.26241,3.07159 1.32888,1.41242 3.11405,1.75618 4.92978,0.9493 z"
       id="path1718" />
  </g>
</svg>
